<svg xmlns="http://www.w3.org/2000/svg" width="256" height="256" viewBox="0 0 256 256">
  <g fill="none" transform="translate(16 91)">
    <path fill="#BF3078" d="M186.552823,0 C185.181111,0 183.535056,0 182.163344,0.273504257 L174.207415,14.2222214 C177.773866,12.0341873 182.163344,10.9401703 186.552823,10.9401703 C200.818627,10.9401703 212.615349,22.7008533 212.615349,36.9230747 C212.615349,51.1452961 200.818627,62.9059792 186.552823,62.9059792 C172.287018,62.9059792 160.764638,51.4188004 160.490296,37.196579 L152.260024,51.1452961 C157.746872,64.5470047 171.189649,73.8461494 186.27848,73.8461494 C206.579817,73.8461494 223.314702,57.1623898 223.314702,36.9230747 C223.589045,16.6837597 206.854159,0 186.552823,0 Z"/>
    <path fill="#802050" d="M74.621129,38.5641003 L80.9310039,27.62393 L95.196808,51.9658089 L111.657351,23.7948704 L128.117894,51.9658089 L156.37516,4.10256386 C157.746872,1.64102554 160.490296,0 163.508062,0 L171.463991,0 L128.117894,73.8461494 L111.657351,45.675211 L95.196808,73.8461494 L74.621129,38.5641003 Z"/>
    <path fill="#26134D" d="M86.4178516,0 L43.0717546,73.8461494 L-1.77635684e-14,0 L7.95592919,0 C10.9736954,0 13.7171193,1.64102554 15.0888312,4.10256386 L43.0717546,52.2393131 L71.3290204,4.10256386 C72.7007323,1.64102554 75.4441562,0 78.4619224,0 L86.4178516,0 Z"/>
  </g>
</svg>
